PathFileType	4	(X/Y/Z)	C:/Users/beibeiliu/ov580/test_trc/User3\sequence.8_training_dense_left.trc
DataRate	CameraRate	NumFrames	NumMarkers	Units	OrigDataRate	OrigDataStartFrame	OrigNumFrames
120	120	21	19	mm	120	135	161
Frame#	Time	ThumbCMC			ThumbMCP			ThumbIP			ThumbTip			IndexMCP			IndexPIP			IndexTip			MiddleMCP			MiddlePIP			MiddleTip			RingMCP			RingPIP			RingTip			PinkyMCP			PinkyPIP			PinkyTip			BackHand1			BackHand2			BackHand3	
		X0	Y0	Z0	X1	Y1	Z1	X2	Y2	Z2	X3	Y3	Z3	X4	Y4	Z4	X5	Y5	Z5	X6	Y6	Z6	X7	Y7	Z7	X8	Y8	Z8	X9	Y9	Z9	X10	Y10	Z10	X11	Y11	Z11	X12	Y12	Z12	X13	Y13	Z13	X14	Y14	Z14	X15	Y15	Z15	X16	Y16	Z16	X17	Y17	Z17	X18	Y18	Z18	
134	1.11667	-194.234	-8.37797	10.5143	-163.148	1.2915	1.9416	-136.679	7.87678	-5.6826	-114.224	10.8566	-8.97817	-153.902	-44.3512	-46.216	-120.99	-40.42	-55.0326	-97.0246	-44.4083	-47.8912	-152.34	-66.5624	-46.1129	-124.122	-70.2106	-53.369	-86.8156	-65.3532	-41.7834	-148.358	-84.1708	-18.3141	-119.405	-75.8659	-5.43741	-120.665	-59.3961	25.69	-148.262	-91.1503	3.43	-133.85	-73.7025	20.1845	-147.871	-55.4689	37.1848	-200.991	-76.2586	-5.56238	-224.319	-66.1649	12.617	-212.388	-40.4281	-9.0399	
135	1.125	-214.066	-11.8828	7.84112	-191.101	8.85126	-4.19246	-165.346	22.1057	-18.2325	-147.112	34.2006	-25.1994	-164.1	-35.7967	-54.7236	-137.872	-27.0724	-65.3347	-112.538	-17.1079	-63.2632	-157.813	-57.4892	-50.6248	-132.235	-49.0637	-62.9595	-94.1538	-36.8505	-56.5213	-143.953	-63.3586	-25.2894	-117.96	-49.5284	-11.2829	-123.415	-29.251	13.349	-145.671	-72.7089	-0.68668	-131.804	-49.8959	15.6136	-149.793	-37.2227	33.9497	-197.663	-77.7994	-3.93374	-214.882	-79.2216	19.5833	-218.645	-49.7198	-6.46609	
136	1.13333	-221.13	-22.2326	3.46907	-210.421	4.72138	-13.0292	-197.536	24.0412	-26.4398	-180.696	38.7374	-39.4835	-178.842	-33.9676	-61.0897	-158.918	-20.8777	-75.9391	-138.479	-4.07644	-79.2209	-164.746	-53.3174	-57.1257	-142.911	-38.3844	-74.0245	-115.452	-13.5126	-76.3889	-147.119	-54.931	-30.2387	-127.549	-32.7422	-27.1623	-132.779	-10.5685	1.81606	-139.441	-54.6383	-8.12039	-134.42	-33.0146	7.1429	-159.496	-23.6346	26.4795	-192.613	-78.3113	-1.83549	-206.128	-83.8328	22.827	-218.302	-60.8006	-4.34255	
137	1.14167	-228.11	-32.3009	4.70589	-227.674	-5.55491	-12.7139	-215.677	13.8487	-34.1787	-204.851	29.8689	-48.4495	-194.109	-42.8941	-61.099	-181.302	-22.9305	-84.7294	-165.383	-1.34951	-92.5479	-174.47	-56.3313	-57.4445	-156.952	-39.6326	-83.0979	-134.176	-14.4699	-90.9854	-151.459	-53.0419	-36.2722	-135.357	-25.8881	-37.28	-146.031	-1.31414	-12.7693	-143.465	-47.3555	-15.7299	-142.875	-22.0965	-2.99733	-161.859	-17.789	15.7439	-186.706	-81.3547	-1.35087	-197.25	-83.8705	27.2324	-219.328	-68.0975	-2.21451	
138	1.15	-232.613	-45.1727	9.93126	-234.871	-23.3194	-13.5358	-233.085	-4.02694	-42.324	-225.556	9.71701	-57.4767	-206.091	-63.2645	-63.8111	-196.494	-48.1984	-90.696	-186.994	-22.8893	-103.54	-181.536	-75.2006	-62.8124	-172.059	-59.7342	-89.5567	-157.252	-33.9148	-104.871	-161.443	-64.0833	-43.4336	-150.188	-34.2241	-51.6741	-153.439	-11.7423	-27.7702	-151.375	-52.9122	-25.8457	-150.927	-26.4804	-15.4849	-167.958	-22.9196	4.52124	-181.936	-91.9128	-2.39564	-193.204	-89.7787	32.0354	-218.983	-80.511	1.65986	
139	1.15833	-239.185	-58.265	10.2793	-243.157	-41.9176	-16.786	-241.961	-30.7283	-44.2012	-237.026	-21.8384	-61.8464	-224.369	-91.4321	-58.5797	-220.969	-82.4456	-89.3963	-211.071	-65.8116	-105.996	-195.662	-104.254	-59.9121	-193.301	-96.6965	-86.0392	-183.798	-71.8497	-110.711	-172.844	-85.5019	-47.5148	-163.241	-57.1483	-59.7814	-170.097	-31.09	-41.8154	-159.715	-77.0693	-28.5247	-159.008	-47.6807	-28.9164	-174.16	-38.8486	-2.67669	-189.639	-104.183	6.86686	-191.523	-101.204	32.9321	-220.91	-94.8129	14.0869	
140	1.16667	-245.065	-70.4317	15.2357	-252.07	-56.7304	-12.4102	-254.552	-50.7029	-42.7723	-252.122	-45.5662	-67.3922	-241.449	-117.907	-46.3142	-243.748	-117.014	-78.6767	-237.181	-104.656	-100.969	-220.604	-128.646	-45.3998	-218.144	-130.099	-77.275	-210.709	-109.379	-108.476	-194.32	-113.127	-43.7045	-185.344	-86.862	-64.0088	-185.782	-58.2861	-51.1377	-175.933	-100.184	-30.7641	-173.874	-73.0625	-35.5509	-184.224	-57.5214	-15.7191	-201.702	-119.495	13.4408	-200.841	-107.531	44.0078	-235.438	-107.759	21.7913	
141	1.175	-255.074	-73.5448	20.1002	-258.75	-66.0281	-10.3355	-267.434	-59.5027	-38.9652	-263.555	-58.9074	-60.3399	-264.009	-128.618	-31.9146	-268.657	-134.091	-60.8327	-265.031	-125.085	-91.7203	-241.455	-145.847	-32.3376	-247.104	-148.785	-68.3744	-239.371	-137.202	-98.0372	-211.181	-133.079	-37.9706	-202.457	-114.216	-58.4612	-195.708	-84.3935	-53.6497	-192.508	-120.387	-29.655	-187.938	-96.8926	-37.2315	-193.439	-70.4188	-17.0111	-217.631	-131.805	18.7316	-211.993	-118.224	47.3242	-244.208	-111.278	31.2875	
142	1.18333	-260.003	-69.4186	23.1704	-263.565	-65.3592	-9.15112	-270.771	-60.8089	-38.4288	-268.721	-62.4891	-61.593	-279.553	-130.707	-23.4303	-284.278	-138.802	-54.0311	-280.084	-133.321	-80.6074	-262.949	-148.677	-26.5616	-264.696	-156.871	-56.3568	-253.957	-147.172	-91.2731	-232.241	-141.125	-28.7632	-218.605	-127.945	-54.1335	-211.116	-93.229	-52.2227	-207.298	-132.758	-24.9327	-203.106	-109.65	-35.5887	-197.068	-83.7072	-20.2319	-232.902	-133.853	26.9339	-221.904	-121.295	52.1862	-254.111	-110.162	38.0117	
143	1.19167	-258.352	-61.6933	21.3007	-258.612	-58.6833	-10.8644	-264.928	-52.2503	-39.0322	-264.636	-54.7053	-63.1193	-293.248	-115.497	-21.6045	-301.433	-122.582	-50.1567	-293.914	-118.172	-78.6978	-281.518	-140.948	-23.0145	-285.623	-146.204	-54.2371	-274.629	-136.766	-87.5791	-250.218	-140.033	-24.1351	-233.207	-129.727	-52.4647	-217.791	-105.497	-52.1664	-225.133	-138.059	-16.9598	-214.369	-116.293	-33.2568	-203.319	-90.2556	-16.391	-251.693	-129.027	29.7674	-233.655	-116.94	55.0138	-261.866	-99.1129	38.6312	
144	1.2	-248.229	-48.3317	20.0768	-249.941	-42.8673	-13.9763	-252.231	-38.7892	-42.4868	-252.823	-38.697	-67.8027	-301.573	-86.8997	-21.1427	-310.778	-87.7687	-52.5219	-300.428	-87.4309	-82.1145	-298.908	-112.714	-20.192	-306.385	-116.634	-50.3714	-290.355	-111.701	-86.5056	-269.906	-123.833	-28.2085	-254.034	-121.972	-49.9748	-222.784	-102.292	-47.611	-246.785	-128.168	-15.9166	-225.047	-114.242	-30.748	-210.582	-96.4335	-18.1939	-266.17	-112.195	30.6378	-247.17	-105.614	56.267	-269.223	-79.4311	36.0954	
145	1.20833	-236.08	-33.2873	16.8163	-232.172	-29.8455	-13.6074	-232.556	-24.9563	-44.2231	-231.676	-25.7023	-66.9836	-298.784	-49.3864	-26.1223	-306.577	-47.2861	-52.6441	-297.871	-49.2763	-79.8755	-303.989	-75.0667	-21.6353	-312.987	-75.8975	-52.0521	-296.482	-77.163	-89.3699	-281.855	-94.8228	-24.8884	-263.303	-101.602	-51.0907	-230.449	-92.895	-45.8601	-260.879	-113.283	-21.9428	-236.657	-106.959	-30.4603	-216.495	-92.9857	-14.0965	-273.709	-90.2833	29.6575	-256.502	-89.8103	55.9145	-263.758	-54.9746	37.0205	
146	1.21667	-218.635	-27.0562	19.2754	-212.347	-22.1177	-12.5205	-204.529	-12.8046	-40.1286	-208.093	-17.4756	-63.8947	-280.278	-13.3849	-25.993	-284.069	-3.63719	-52.3766	-277.46	-10.8942	-85.7981	-294.007	-30.0964	-23.1353	-302.929	-28.973	-54.6497	-290.085	-36.3693	-88.0755	-284.008	-61.2072	-30.9024	-265.479	-73.7517	-55.3546	-238.096	-80.2577	-49.4313	-270.026	-85.4637	-22.1764	-246.077	-86.3593	-33.4474	-221.657	-79.6842	-14.6364	-273.689	-59.7434	27.5981	-259.696	-66.2767	52.6888	-254.639	-33.5378	37.6921	
147	1.225	-200.859	-19.2778	18.2649	-188.282	-15.3829	-10.9034	-186.164	-12.296	-39.3924	-181.721	-11.3233	-64.2853	-249.629	16.5156	-25.2785	-253.138	25.7984	-53.8091	-248.911	20.788	-82.203	-274.828	2.22101	-26.5347	-278.765	10.7648	-54.9261	-270.615	1.20888	-88.518	-274.872	-29.8885	-30.7209	-260.874	-42.4316	-57.375	-235.062	-63.4468	-49.8435	-271.102	-56.5119	-26.1369	-244.153	-65.7111	-34.5925	-223.856	-69.6354	-12.4546	-268.441	-32.2897	23.3364	-251.331	-44.2343	52.6909	-233.762	-13.4706	35.2753	
148	1.23333	-183.907	-18.4372	20.8841	-173.309	-17.3242	-11.648	-166.192	-15.9073	-38.2463	-160.796	-17.8133	-63.0855	-225.136	25.8158	-26.9884	-226.133	36.0577	-55.9933	-223.418	30.2651	-86.5016	-247.734	21.9786	-27.4697	-251.43	30.5645	-58.8576	-249.279	17.2769	-92.76	-260.308	-9.89081	-34.6243	-250.299	-24.6512	-59.4863	-226.907	-48.9605	-51.9954	-261.125	-34.8297	-27.5926	-239.353	-52.2767	-36.5302	-223.263	-61.5924	-11.1793	-254.303	-13.1232	20.6907	-241.327	-27.7425	51.7804	-219.687	-3.80167	33.3538	
149	1.24167	-175.152	-23.6367	19.9689	-158.007	-27.3375	-8.50992	-150.053	-26.4634	-40.5731	-149.373	-29.5469	-64.7601	-205.712	24.6227	-36.1772	-205.231	30.6459	-60.8931	-198.2	22.0021	-92.5393	-228.46	21.2701	-31.5055	-233.183	30.0553	-62.7511	-226.774	13.9409	-100.337	-242.039	-4.65204	-37.6636	-238.133	-25.2902	-62.1462	-223.897	-51.5233	-53.6081	-250.192	-30.7113	-27.6261	-236.129	-53.0491	-37.0378	-220.545	-60.7729	-9.79375	-242.634	-8.11676	18.6385	-235.915	-24.0508	47.6025	-204.117	-2.05664	31.2651	
150	1.25	-167.432	-29.4565	17.5881	-151.236	-37.4106	-11.3508	-139.697	-41.808	-34.6221	-135.904	-47.8259	-58.9829	-193.537	11.069	-38.7807	-186.294	16.2554	-70.2378	-187.18	4.85894	-95.9618	-220.047	11.458	-40.6858	-220.83	13.4812	-73.8564	-214.802	-1.76661	-101.119	-230.167	-13.3593	-43.4787	-227.695	-37.3594	-63.2355	-213.051	-62.4698	-50.0113	-243.252	-40.1166	-31.465	-225.26	-62.5732	-33.7594	-212.189	-67.649	-5.05129	-229.837	-12.6829	17.8347	-225.951	-24.2811	44.3985	-195.572	-6.04516	28.3179	
151	1.25833	-157.789	-34.7629	16.837	-148.967	-45.6814	-9.1843	-133.744	-52.5478	-37.0565	-134.57	-61.5219	-57.7014	-187.764	-1.96198	-42.7602	-182.912	-0.904633	-73.6472	-180.993	-15.5562	-100.002	-214.412	-3.53982	-43.4245	-214.6	-2.41572	-77.5512	-208.638	-24.7945	-106.477	-227.962	-27.7948	-45.8775	-222.09	-52.5596	-62.2953	-209.475	-75.9471	-48.258	-235.088	-50.5359	-31.4872	-221.638	-74.6555	-30.9246	-209.836	-75.7626	-4.46307	-228.679	-17.099	12.357	-223.303	-26.575	42.9103	-194.704	-12.2302	21.4448	
152	1.26667	-157.772	-37.5111	16.7998	-144.593	-50.1852	-4.74612	-131.614	-58.0049	-31.9692	-129.799	-67.7786	-53.7597	-185.188	-8.75324	-47.9711	-179.423	-10.6022	-77.5352	-178.618	-24.3323	-100.026	-213.718	-9.88446	-47.5097	-211.623	-11.7312	-79.5756	-209.062	-35.3549	-105.566	-225.956	-34.8355	-42.944	-222.738	-59.9108	-61.0551	-206.114	-85.2406	-41.4754	-237.674	-59.3862	-29.0058	-217.611	-79.034	-29.2408	-206.029	-77.1892	-2.42622	-225.372	-22.8638	13.7286	-218.335	-26.1596	42.6461	-192.347	-15.4781	22.5737	
153	1.275	-161	-36.7375	17.5503	-142.825	-47.7025	-6.63823	-136.036	-56.4645	-33.3262	-130.605	-66.771	-52.1083	-191.525	-10.6667	-45.8805	-182.597	-11.7414	-80.2287	-181.877	-28.7449	-102.556	-213.852	-9.18862	-50.4856	-215.986	-14.1595	-79.8204	-207.309	-37.2831	-106.274	-231.12	-38.6002	-41.1518	-222.374	-65.38	-60.7734	-205.546	-85.0422	-45.0921	-234.644	-59.4178	-28.1384	-217.675	-82.8626	-26.1732	-205.515	-79.6528	-1.64044	-229.549	-24.2177	10.0907	-221.942	-28.5799	44.5504	-194.258	-14.7524	23.7444	
154	1.28333	-161.397	-36.4167	17.6541	-141.97	-47.0662	-8.5864	-132.208	-55.7712	-36.6782	-134.09	-65.5891	-55.0822	-188.93	-7.97497	-50.0989	-187.426	-12.1275	-78.396	-183.072	-26.3015	-100.042	-217.667	-11.2356	-48.0017	-214.525	-13.4479	-79.6963	-208.057	-38.9322	-107.389	-226.896	-36.8499	-40.9791	-223.037	-66.4366	-59.0279	-205.859	-86.4407	-42.4532	-237.588	-60.5404	-26.5012	-215.883	-80.8235	-28.5332	-206.187	-80.4661	-2.95937	-226.595	-23.3659	12.5324	-221.522	-30.0791	45.2175	-192.868	-15.3868	20.3427	
